<?xml version="1.0" encoding="UTF-8" standalone="no"?>
<svg
   xmlns:dc="http://purl.org/dc/elements/1.1/"
   xmlns:cc="http://creativecommons.org/ns#"
   xmlns:rdf="http://www.w3.org/1999/02/22-rdf-syntax-ns#"
   xmlns:svg="http://www.w3.org/2000/svg"
   xmlns="http://www.w3.org/2000/svg"
   xmlns:sodipodi="http://sodipodi.sourceforge.net/DTD/sodipodi-0.dtd"
   xmlns:inkscape="http://www.inkscape.org/namespaces/inkscape"
   width="150"
   height="150"
   viewBox="0 0 150 150"
   fill="none"
   version="1.1"
   id="svg4"
   sodipodi:docname="heart-64.svg"
   inkscape:version="1.0.1 (3bc2e813f5, 2020-09-07)">
  <metadata
     id="metadata10">
    <rdf:RDF>
      <cc:Work
         rdf:about="">
        <dc:format>image/svg+xml</dc:format>
        <dc:type
           rdf:resource="http://purl.org/dc/dcmitype/StillImage" />
      </cc:Work>
    </rdf:RDF>
  </metadata>
  <defs
     id="defs8" />
  <sodipodi:namedview
     pagecolor="#ffffff"
     bordercolor="#666666"
     borderopacity="1"
     objecttolerance="10"
     gridtolerance="10"
     guidetolerance="10"
     inkscape:pageopacity="0"
     inkscape:pageshadow="2"
     inkscape:window-width="1920"
     inkscape:window-height="1017"
     id="namedview6"
     showgrid="false"
     inkscape:zoom="4.9"
     inkscape:cx="75"
     inkscape:cy="75"
     inkscape:window-x="-8"
     inkscape:window-y="-8"
     inkscape:window-maximized="1"
     inkscape:current-layer="svg4" />
  <path
     d="M125.784 35.0369C113.039 22.2916 92.9859 21.3682 79.1227 32.8994C79.1062 32.9135 77.318 34.3807 75 34.3807C72.6234 34.3807 70.9266 32.9416 70.8609 32.8853C57.0141 21.3682 36.9609 22.2916 24.2156 35.0369C17.6695 41.583 14.0625 50.2877 14.0625 59.5478C14.0625 68.808 17.6695 77.5127 24.0914 83.9228L64.3078 131.006C66.9844 134.14 70.882 135.938 75 135.938C79.1203 135.938 83.0156 134.14 85.6922 131.009L125.782 84.0611C139.301 70.5447 139.301 48.5533 125.784 35.0369ZM122.346 80.8807L82.1297 127.964C80.3461 130.05 77.7469 131.25 75 131.25C72.2531 131.25 69.6562 130.053 67.8703 127.964L27.532 80.7447C21.8695 75.0822 18.75 67.5541 18.75 59.5478C18.75 51.5392 21.8695 44.0135 27.5297 38.351C33.3961 32.4822 41.0555 29.5127 48.7336 29.5127C55.4742 29.5127 62.2289 31.8025 67.7977 36.4338C68.0977 36.7033 70.8586 39.0682 75 39.0682C79.0266 39.0682 81.8578 36.7314 82.1367 36.49C94.1109 26.5291 111.45 27.3307 122.47 38.351C134.159 50.0393 134.159 69.0564 122.346 80.8807Z"
     fill="#535353"
     id="path2" />
  <path
     id="path996"
     style="fill:#535353;stroke:none;fill-opacity:1"
     d="M 48.294922 29.640625 C 47.900075 29.643221 47.508559 29.675518 47.115234 29.695312 C 46.931885 29.701373 46.749293 29.710751 46.566406 29.720703 C 46.368342 29.734672 46.170184 29.743476 45.972656 29.761719 C 32.429095 30.811001 20.357937 42.407326 19.080078 56.007812 C 18.738438 59.112765 18.853234 62.267847 19.433594 65.330078 C 19.442213 65.381865 19.44625 65.434596 19.455078 65.486328 C 19.478197 65.597574 19.512674 65.705529 19.537109 65.816406 C 20.078519 68.43283 20.95296 70.976243 22.224609 73.347656 C 23.2986 75.415272 24.669912 77.275993 26.140625 79.064453 C 26.209729 79.147825 26.277771 79.23173 26.347656 79.314453 C 28.203987 81.548708 30.207373 83.677015 32.009766 85.941406 C 44.008879 99.926446 55.902099 114.00636 68.080078 127.83594 C 70.56986 131.22042 75.574219 132.08905 79.207031 130.10938 C 79.46544 129.96207 79.706855 129.79419 79.947266 129.625 C 79.964866 129.61323 79.982491 129.60176 80 129.58984 C 80.134455 129.49395 80.265014 129.39289 80.394531 129.29102 C 80.529734 129.18608 80.662664 129.07889 80.791016 128.96484 C 82.541243 127.45955 83.88811 125.4692 85.496094 123.82227 C 97.605732 109.76553 109.72344 95.713976 121.69922 81.542969 C 122.45067 80.685751 123.19824 79.82381 123.91602 78.935547 C 128.41749 73.838101 130.93216 67.139429 131.07031 60.351562 C 131.43951 51.694769 127.67283 43.015267 121.13281 37.339844 C 116.74816 33.163065 110.89139 30.592029 104.91016 29.845703 C 103.673 29.72495 102.42735 29.659286 101.18164 29.658203 C 100.84405 29.657856 100.50726 29.672361 100.16992 29.683594 C 99.78742 29.69443 99.405016 29.708284 99.023438 29.732422 C 98.932831 29.739004 98.842491 29.746475 98.751953 29.753906 C 95.866423 29.961245 93.017557 30.552042 90.333984 31.693359 C 86.124025 33.222129 82.880252 36.47306 78.865234 38.349609 C 74.786191 39.97613 70.04863 38.617884 66.839844 35.789062 C 61.957249 32.107875 56.017176 29.809435 49.888672 29.669922 C 49.358018 29.647134 48.825801 29.634307 48.294922 29.640625 z " />
  <path
     style="fill:#ffffff;stroke:none;stroke-width:0.204082;fill-opacity:1"
     d="m 48.015784,24.754863 c -9.567155,0.16315 -18.893867,4.540439 -25.243847,11.680858 -6.778285,7.454553 -9.88619,17.992832 -8.435081,27.94755 0.937918,7.224584 4.307831,14.030823 9.316673,19.300939 14.063332,16.32703 27.910085,32.84378 42.195483,48.97762 5.068664,4.5205 13.551725,4.44918 18.489496,-0.21854 13.795261,-15.53348 27.121012,-31.47707 40.685652,-47.211384 3.50036,-3.812486 6.67416,-8.013694 8.54983,-12.880692 5.26248,-13.018145 1.75293,-29.218103 -8.9391,-38.466488 -6.61436,-6.302313 -15.86348,-9.52693 -24.956851,-9.045248 -7.278849,0.208167 -14.378123,3.008509 -20.069063,7.512643 -2.004486,1.636475 -4.915596,2.6833 -7.305484,1.197385 -3.424568,-2.109619 -6.536372,-4.80148 -10.371614,-6.196293 -4.390909,-1.825567 -9.162931,-2.710216 -13.916094,-2.59835 z"
     id="path1001" />
</svg>
