<?xml version="1.0" encoding="UTF-8" standalone="no"?>
<svg
   xmlns:dc="http://purl.org/dc/elements/1.1/"
   xmlns:cc="http://creativecommons.org/ns#"
   xmlns:rdf="http://www.w3.org/1999/02/22-rdf-syntax-ns#"
   xmlns:svg="http://www.w3.org/2000/svg"
   xmlns="http://www.w3.org/2000/svg"
   xmlns:sodipodi="http://sodipodi.sourceforge.net/DTD/sodipodi-0.dtd"
   xmlns:inkscape="http://www.inkscape.org/namespaces/inkscape"
   width="150"
   height="150"
   viewBox="0 0 150 150"
   fill="none"
   version="1.1"
   id="svg4"
   sodipodi:docname="heart-64 unliked.svg"
   inkscape:version="1.0.1 (3bc2e813f5, 2020-09-07)">
  <metadata
     id="metadata10">
    <rdf:RDF>
      <cc:Work
         rdf:about="">
        <dc:format>image/svg+xml</dc:format>
        <dc:type
           rdf:resource="http://purl.org/dc/dcmitype/StillImage" />
      </cc:Work>
    </rdf:RDF>
  </metadata>
  <defs
     id="defs8" />
  <sodipodi:namedview
     pagecolor="#ffffff"
     bordercolor="#666666"
     borderopacity="1"
     objecttolerance="10"
     gridtolerance="10"
     guidetolerance="10"
     inkscape:pageopacity="0"
     inkscape:pageshadow="2"
     inkscape:window-width="1920"
     inkscape:window-height="1017"
     id="namedview6"
     showgrid="false"
     inkscape:zoom="4.9"
     inkscape:cx="75"
     inkscape:cy="75"
     inkscape:window-x="-8"
     inkscape:window-y="-8"
     inkscape:window-maximized="1"
     inkscape:current-layer="svg4" />
  <path
     d="M125.784 35.0369C113.039 22.2916 92.9859 21.3682 79.1227 32.8994C79.1062 32.9135 77.318 34.3807 75 34.3807C72.6234 34.3807 70.9266 32.9416 70.8609 32.8853C57.0141 21.3682 36.9609 22.2916 24.2156 35.0369C17.6695 41.583 14.0625 50.2877 14.0625 59.5478C14.0625 68.808 17.6695 77.5127 24.0914 83.9228L64.3078 131.006C66.9844 134.14 70.882 135.938 75 135.938C79.1203 135.938 83.0156 134.14 85.6922 131.009L125.782 84.0611C139.301 70.5447 139.301 48.5533 125.784 35.0369ZM122.346 80.8807L82.1297 127.964C80.3461 130.05 77.7469 131.25 75 131.25C72.2531 131.25 69.6562 130.053 67.8703 127.964L27.532 80.7447C21.8695 75.0822 18.75 67.5541 18.75 59.5478C18.75 51.5392 21.8695 44.0135 27.5297 38.351C33.3961 32.4822 41.0555 29.5127 48.7336 29.5127C55.4742 29.5127 62.2289 31.8025 67.7977 36.4338C68.0977 36.7033 70.8586 39.0682 75 39.0682C79.0266 39.0682 81.8578 36.7314 82.1367 36.49C94.1109 26.5291 111.45 27.3307 122.47 38.351C134.159 50.0393 134.159 69.0564 122.346 80.8807Z"
     fill="#535353"
     id="path2" />
  <path
     style="fill:#ffffff;stroke:none;stroke-width:0.204082;fill-opacity:1"
     d="m 48.015784,24.754863 c -9.567155,0.16315 -18.893867,4.540439 -25.243847,11.680858 -6.778285,7.454553 -9.88619,17.992832 -8.435081,27.94755 0.937918,7.224584 4.307831,14.030823 9.316673,19.300939 14.063332,16.32703 27.910085,32.84378 42.195483,48.97762 5.068664,4.5205 13.551725,4.44918 18.489496,-0.21854 13.795261,-15.53348 27.121012,-31.47707 40.685652,-47.211384 3.50036,-3.812486 6.67416,-8.013694 8.54983,-12.880692 5.26248,-13.018145 1.75293,-29.218103 -8.9391,-38.466488 -6.61436,-6.302313 -15.86348,-9.52693 -24.956851,-9.045248 -7.278849,0.208167 -14.378123,3.008509 -20.069063,7.512643 -2.004486,1.636475 -4.915596,2.6833 -7.305484,1.197385 -3.424568,-2.109619 -6.536372,-4.80148 -10.371614,-6.196293 -4.390909,-1.825567 -9.162931,-2.710216 -13.916094,-2.59835 z m 0.958228,4.884407 c 7.020237,0.0064 13.804461,2.822765 19.222735,7.196269 3.847943,3.041392 9.631416,3.048579 13.501006,0.04592 4.026627,-2.95649 8.404861,-5.617177 13.3724,-6.593274 5.678147,-1.053916 11.721817,-0.798391 17.096007,1.45302 6.6275,2.599186 12.15948,7.772373 15.55709,13.989341 2.39898,4.611508 3.59764,9.833975 3.25955,15.03468 -0.0235,7.803491 -3.90079,15.126865 -9.21251,20.656108 C 108.28144,96.979427 95.110555,112.81388 81.462616,128.23315 78.244659,132.19196 71.245045,132.0457 68.229831,127.89621 53.904208,111.65972 39.990765,95.064686 25.847816,78.669484 21.376651,73.269924 18.638977,66.244427 18.986685,59.183676 18.723243,48.693935 25.083094,38.612303 34.131927,33.533203 38.628698,30.974411 43.795465,29.589417 48.974012,29.63927 Z"
     id="path835" />
</svg>
